<svg width="1440" height="820" viewBox="0 0 1440 820" fill="none" xmlns="http://www.w3.org/2000/svg">
<mask id="path-1-inside-1_1002_91" fill="white">
<rect width="1440" height="820" rx="10"/>
</mask>
<rect width="1440" height="820" rx="10" stroke="#7F7F7F" stroke-width="100" mask="url(#path-1-inside-1_1002_91)"/>
<path d="M546.55 297.7C554.483 301.9 559.5 308.083 561.6 316.25C556.933 342.383 552.733 368.4 549 394.3C545.267 419.967 541.65 441.55 538.15 459.05C534.65 476.317 532.2 489.267 530.8 497.9C529.633 506.533 528.233 515.167 526.6 523.8L524.5 531.15C524.033 533.717 523.567 536.05 523.1 538.15C522.633 540.483 522.167 542.933 521.7 545.5C515.167 552.967 506.3 556.7 495.1 556.7C483.2 556.7 473.75 553.667 466.75 547.6C462.55 544.333 461.85 537.45 464.65 526.95C465.817 522.75 466.517 517.383 466.75 510.85C467.217 504.083 467.683 498.483 468.15 494.05V493.35C461.15 495.917 454.85 499.3 449.25 503.5C443.65 507.467 440.15 510.033 438.75 511.2C437.35 512.133 435.483 512.95 433.15 513.65C430.817 514.117 428.717 514.467 426.85 514.7C422.417 514.933 419.383 515.633 417.75 516.8C404.217 541.067 392.083 554.6 381.35 557.4C374.583 559.5 367.817 559.967 361.05 558.8C354.283 557.867 348.917 553.9 344.95 546.9C337.483 539.9 339.35 520.767 350.55 489.5C356.617 472.933 365.25 453.1 376.45 430C387.883 406.667 398.85 386.367 409.35 369.1C431.983 332 456.833 300.733 483.9 275.3C488.333 273.433 493.117 271.333 498.25 269C503.383 266.433 508.4 265.033 513.3 264.8C518.433 264.567 523.683 265.15 529.05 266.55C534.417 267.95 538.967 270.05 542.7 272.85C551.333 279.383 552.617 287.667 546.55 297.7ZM471.65 389.75C466.75 403.75 461.85 416.7 456.95 428.6C452.05 440.267 447.85 450.533 444.35 459.4L472 458.35C473.867 443.417 475.967 428.6 478.3 413.9C480.633 399.2 482.85 384.5 484.95 369.8L471.65 389.75ZM462.2 459.75C465.467 459.75 468.733 459.517 472 459.05V458.7C468.967 458.933 466.167 459.167 463.6 459.4C461.033 459.633 460.567 459.75 462.2 459.75ZM599.209 382.75C599.675 378.317 602.475 374.7 607.609 371.9C612.742 369.1 618.459 367.7 624.759 367.7C631.059 367.7 637.125 369.217 642.959 372.25C649.025 375.05 653.109 379.95 655.209 386.95C675.042 369.683 693.125 363.033 709.459 367C715.059 368.167 719.842 371.433 723.809 376.8C735.709 365.367 748.892 357.9 763.359 354.4C781.559 353.7 794.625 357.9 802.559 367C803.725 368.167 804.892 369.45 806.059 370.85C809.325 374.35 811.192 376.683 811.659 377.85C815.859 384.383 817.025 399.433 815.159 423C812.592 453.567 806.759 484.25 797.659 515.05C792.759 530.683 788.325 538.733 784.359 539.2C782.025 539.667 779.809 539.667 777.709 539.2C775.842 538.733 774.092 538.383 772.459 538.15C771.059 538.15 770.242 539.55 770.009 542.35C765.342 548.417 758.225 551.45 748.659 551.45C739.325 551.45 731.392 548.533 724.859 542.7C717.625 536.633 715.059 529.517 717.159 521.35C719.492 512.95 722.059 504.433 724.859 495.8C727.659 486.933 730.692 477.833 733.959 468.5C739.559 452.167 745.742 435.133 752.509 417.4C747.609 423 740.959 433.617 732.559 449.25C724.159 464.65 718.909 473.867 716.809 476.9C712.842 484.833 709.575 491.133 707.009 495.8C704.442 500.233 700.942 503.85 696.509 506.65C692.309 509.217 688.342 510.85 684.609 511.55C681.109 512.25 677.725 512.367 674.459 511.9C666.759 510.733 661.275 507.467 658.009 502.1C657.309 500.233 656.609 498.367 655.909 496.5C655.209 494.633 654.625 492.067 654.159 488.8C653.459 481.567 654.392 469.783 656.959 453.45L656.259 454.5C659.059 451.7 659.992 451 659.059 452.4C649.725 465.7 644.125 474.217 642.259 477.95C640.392 481.683 638.409 485.883 636.309 490.55C634.209 494.983 631.759 500.233 628.959 506.3C626.159 512.133 623.942 517.383 622.309 522.05C620.675 526.717 618.692 531.267 616.359 535.7C605.859 553.9 587.425 561.25 561.059 557.75C555.459 557.05 550.675 555.65 546.709 553.55C542.742 551.683 541.109 548.767 541.809 544.8C543.675 535.467 547.992 519.95 554.759 498.25C568.059 455.317 575.992 427.667 578.559 415.3C580.192 411.1 581.592 406.783 582.759 402.35C584.159 397.917 585.559 394.067 586.959 390.8C589.759 383.1 593.842 380.417 599.209 382.75ZM720.659 469.2V469.9C721.125 468.967 721.125 468.733 720.659 469.2ZM914.069 501.05C921.069 499.183 928.652 498.717 936.819 499.65C944.986 500.583 952.102 502.917 958.169 506.65C964.236 510.383 968.319 515.517 970.419 522.05C972.752 528.583 971.352 536.4 966.219 545.5C963.652 545.733 958.402 546.55 950.469 547.95C942.769 549.35 933.669 550.867 923.169 552.5C912.902 554.133 901.936 555.65 890.269 557.05C878.836 558.45 868.102 559.267 858.069 559.5C834.969 560.433 822.136 557.75 819.569 551.45C810.469 531.15 820.502 506.3 849.669 476.9C857.369 469.433 864.486 462.667 871.019 456.6C877.552 450.3 882.802 444.933 886.769 440.5C890.969 436.067 892.486 432.8 891.319 430.7C886.886 429.767 884.202 429.067 883.269 428.6C881.636 427.433 877.552 426.5 871.019 425.8C864.719 424.867 859.819 422.65 856.319 419.15C853.052 415.417 851.652 411.217 852.119 406.55C852.819 401.65 855.152 396.75 859.119 391.85C863.319 386.717 868.919 382.283 875.919 378.55C882.919 374.817 890.386 371.667 898.319 369.1C906.486 366.533 914.769 364.433 923.169 362.8C937.169 359.767 953.736 357.667 972.869 356.5C975.436 356.5 977.186 357.433 978.119 359.3C979.286 360.933 980.336 362.8 981.269 364.9C982.202 366.767 983.369 368.517 984.769 370.15C986.402 371.55 989.552 372.017 994.219 371.55C998.886 370.85 1002.15 372.833 1004.02 377.5C1006.12 381.933 1006.7 387.533 1005.77 394.3C1004.84 401.067 1002.62 408.067 999.119 415.3C995.619 422.3 991.069 427.9 985.469 432.1C957.469 460.1 939.969 477.25 932.969 483.55L914.069 501.05ZM835.669 507.7C835.902 507.467 835.902 507.467 835.669 507.7C835.436 507.933 835.086 508.167 834.619 508.4C834.852 508.4 835.202 508.167 835.669 507.7Z" fill="#7F7F7F"/>
</svg>
